<svg xmlns="http://www.w3.org/2000/svg" viewBox="0 0 1000 560" role="img" aria-labelledby="t d">
<title id="t">第31題喜帖</title><desc id="d">90年第二次基測第31題的結婚喜帖內容</desc>
<rect x="12" y="12" width="976" height="536" rx="4" fill="white" stroke="#333" stroke-width="4"/>
<g fill="none" stroke="#333" stroke-width="3"><path d="M75 55q20 30 40 0q20-30 40 0q20 30 40 0q20-30 40 0q20 30 40 0q20-30 40 0q20 30 40 0q20-30 40 0q20 30 40 0q20-30 40 0q20 30 40 0q20-30 40 0q20 30 40 0q20-30 40 0q20 30 40 0q20-30 40 0q20 30 40 0q20-30 40 0"/></g>
<g font-family="serif" fill="#111">
<text x="500" y="92" text-anchor="middle" font-size="25">國曆四月十五日（星期日）</text><text x="500" y="123" text-anchor="middle" font-size="24">農曆三月廿二日</text>
<text x="90" y="135" font-size="31" font-weight="700">謹詹於中華民國九十年</text>
<text x="90" y="190" font-size="28">為</text><text x="155" y="174" font-size="20">長孫</text><text x="210" y="190" font-size="34" font-weight="700">世豪</text><text x="330" y="172" font-size="25">與 李天卿 先生 令孫女</text><text x="665" y="190" font-size="34" font-weight="700">淑英小姐</text>
<text x="125" y="222" font-size="20">長男</text><text x="210" y="222" font-size="27">吳</text><text x="250" y="222" font-size="28">玉</text><text x="330" y="222" font-size="26">女士</text>
<text x="90" y="270" font-size="31">敬備喜筵　恭請</text><text x="80" y="355" font-size="43" font-weight="700">闔第光臨</text>
<text x="500" y="355" font-size="29">吳　連　旺</text><text x="500" y="390" font-size="29">吳　蔡　葉</text><text x="500" y="425" font-size="29">吳　子　山　鞠　躬</text><text x="500" y="460" font-size="29">柳　碧　珠</text>
<text x="245" y="450" font-size="21">設席：自宅</text><text x="245" y="480" font-size="21">新店市五民路 20 號　電話：2911-1111</text><text x="120" y="500" font-size="28">恕邀</text><text x="245" y="518" font-size="21">時間：下午六時三十分入席</text>
</g></svg>
